<?xml version="1.0" standalone="no"?>
<!DOCTYPE svg PUBLIC "-//W3C//DTD SVG 20010904//EN"
 "http://www.w3.org/TR/2001/REC-SVG-20010904/DTD/svg10.dtd">
<svg version="1.0" xmlns="http://www.w3.org/2000/svg"
 width="436.000000pt" height="456.000000pt" viewBox="0 0 436.000000 456.000000"
 preserveAspectRatio="xMidYMid meet">

<g transform="translate(0.000000,456.000000) scale(0.100000,-0.100000)"
fill="#000000" stroke="none">
<path d="M1566 3965 c-412 -239 -758 -443 -770 -455 l-21 -21 -3 -1334 -2
-1334 22 -21 c15 -13 32 -20 48 -18 14 2 365 199 779 438 673 387 755 438 767
467 12 27 14 260 14 1348 l0 1316 -26 24 c-15 14 -34 25 -43 24 -9 -1 -353
-196 -765 -434z m539 138 c-7 -29 -32 -63 -47 -63 -15 0 -8 37 13 64 27 34 43
34 34 -1z m265 -1020 l0 -918 -750 -433 c-412 -238 -756 -435 -765 -438 -13
-6 -15 92 -13 912 l3 918 755 437 c415 240 758 437 763 438 4 1 7 -412 7 -916z
m-1274 411 c-21 -32 -50 -33 -41 -1 4 12 17 33 29 45 l21 24 3 -22 c2 -11 -4
-32 -12 -46z m864 -1749 c0 -9 -13 -24 -30 -33 -16 -9 -30 -25 -30 -34 0 -20
15 -24 25 -8 9 14 35 12 35 -2 0 -7 -14 -21 -30 -30 -17 -9 -30 -24 -30 -33 0
-17 25 -21 35 -5 9 15 25 12 25 -4 0 -13 -57 -56 -74 -56 -3 0 -6 40 -6 89 l0
89 33 20 c40 25 47 26 47 7z m-109 -87 c13 -25 6 -107 -12 -136 -11 -18 -59
-52 -73 -52 -3 0 -6 40 -6 90 0 87 1 90 28 104 37 21 49 20 63 -6z m-121 -57
c27 -52 0 -162 -45 -183 -36 -16 -45 0 -45 80 0 57 3 67 29 93 35 34 47 36 61
10z m-114 -66 c4 -8 3 -23 0 -32 -6 -15 -8 -15 -16 -3 -7 12 -14 12 -27 4 -24
-15 -32 -114 -9 -114 9 0 23 15 33 33 17 31 18 31 21 8 7 -48 -66 -106 -89
-69 -13 20 -10 95 5 132 20 49 70 74 82 41z m-151 -95 c3 -10 1 -37 -6 -58 -8
-29 -8 -44 0 -60 14 -27 14 -32 -4 -32 -8 0 -19 9 -25 20 -17 32 -30 23 -30
-20 0 -29 -4 -40 -15 -40 -12 0 -15 16 -15 84 0 80 1 85 28 105 34 26 59 26
67 1z m-120 -145 c0 -73 -3 -90 -15 -91 -8 0 -24 -4 -34 -9 -32 -14 -49 20
-43 88 6 66 36 110 72 105 18 -3 20 -10 20 -93z"/>
<path d="M2025 3644 c-140 -82 -140 -82 -134 -88 2 -2 62 29 132 70 71 41 131
74 133 74 2 0 4 -79 4 -175 0 -110 4 -175 10 -175 6 0 10 68 10 185 0 141 -3
185 -12 185 -7 0 -71 -35 -143 -76z"/>
<path d="M1933 3456 l-123 -71 0 -173 0 -174 58 32 c31 18 90 51 129 74 l73
41 0 173 c0 94 -3 172 -7 171 -5 -1 -63 -33 -130 -73z m107 -115 c0 -137 9
-122 -123 -196 l-68 -37 3 127 3 128 85 48 c47 27 88 49 93 49 4 0 7 -54 7
-119z"/>
<path d="M1940 3361 l-45 -27 -3 -72 c-2 -40 0 -72 3 -72 3 0 27 12 55 28 l50
27 0 73 c0 39 -3 72 -7 71 -5 0 -28 -13 -53 -28z"/>
<path d="M1673 3305 c-51 -34 -53 -36 -53 -80 0 -43 1 -45 20 -35 12 6 20 21
20 35 0 14 8 29 20 35 17 9 20 8 20 -10 0 -17 4 -20 20 -15 16 5 20 2 20 -17
0 -18 -11 -30 -40 -47 -32 -18 -40 -28 -40 -51 0 -23 -15 -40 -36 -40 -2 0 -4
21 -4 46 0 37 -3 45 -15 40 -10 -4 -15 1 -15 15 0 15 -5 19 -16 15 -9 -3 -18
-6 -20 -6 -2 0 -4 -12 -4 -26 0 -21 4 -24 20 -19 19 6 20 2 20 -68 0 -59 -3
-76 -16 -81 -23 -9 -24 -8 -24 13 0 14 -5 18 -20 14 -15 -4 -20 0 -20 16 0 19
-3 20 -20 11 -11 -6 -20 -20 -20 -31 0 -16 4 -19 21 -14 18 6 20 3 17 -22 -3
-31 -38 -47 -38 -18 0 25 -24 12 -28 -14 -3 -19 0 -22 17 -16 17 5 21 2 21
-15 0 -16 5 -20 15 -16 10 4 15 -1 15 -15 0 -16 4 -19 20 -14 16 5 20 2 20
-14 0 -25 8 -26 34 -6 25 19 46 19 46 0 0 -19 5 -19 41 2 21 12 29 25 29 44 0
22 15 39 36 39 2 0 4 -20 4 -45 0 -35 3 -43 15 -39 12 5 15 29 15 130 0 106
-2 123 -15 118 -11 -5 -15 1 -15 19 0 14 7 27 15 31 11 4 15 20 15 55 0 41 -3
49 -15 45 -12 -5 -15 3 -15 40 0 25 -3 46 -7 45 -5 0 -32 -15 -60 -34z m48
-270 c27 9 26 -36 -1 -53 -18 -11 -20 -10 -20 13 0 23 -2 24 -20 15 -13 -7
-20 -21 -20 -39 0 -24 -15 -41 -36 -41 -2 0 -4 22 -4 50 0 47 2 50 38 69 37
19 37 19 40 0 3 -15 9 -18 23 -14z m-131 -103 c0 -19 -18 -42 -32 -42 -10 0
-11 44 -1 53 13 14 33 7 33 -11z"/>
<path d="M1173 3152 l-133 -77 2 -190 3 -190 3 185 3 185 118 68 c124 71 163
96 146 96 -5 0 -70 -35 -142 -77z"/>
<path d="M1493 3203 c-7 -3 -13 -15 -13 -27 0 -13 -9 -31 -20 -41 -20 -18 -28
-55 -12 -55 5 0 17 7 28 15 26 20 34 19 34 -6 0 -15 4 -19 16 -15 9 3 18 6 20
6 2 0 4 12 4 26 0 21 -4 24 -19 19 -17 -5 -20 0 -23 38 -2 30 -7 42 -15 40z"/>
<path d="M1263 3068 l-123 -72 0 -174 0 -174 33 20 c17 10 76 45 130 76 l97
57 0 169 c0 94 -3 170 -7 170 -5 -1 -63 -33 -130 -72z m97 -121 l0 -124 -47
-26 c-27 -15 -67 -38 -91 -52 l-43 -26 3 127 3 127 80 48 c44 27 83 48 88 49
4 0 7 -56 7 -123z"/>
<path d="M1263 2969 l-53 -31 0 -69 c0 -38 3 -69 8 -69 4 0 31 14 60 30 l52
30 0 70 c0 39 -3 70 -7 70 -5 0 -32 -14 -60 -31z"/>
<path d="M2013 3103 c-7 -2 -13 -16 -13 -30 0 -20 4 -23 20 -18 16 5 20 2 20
-14 0 -13 -15 -30 -40 -46 -25 -16 -40 -33 -40 -46 0 -16 4 -19 20 -14 18 6
20 2 20 -38 0 -40 2 -45 20 -40 35 9 25 -34 -12 -57 -18 -11 -36 -20 -40 -20
-5 0 -8 20 -8 45 0 43 -1 45 -20 35 -15 -8 -20 -21 -20 -56 0 -41 2 -45 20
-39 16 5 20 2 20 -15 0 -17 4 -20 20 -15 16 5 20 2 20 -15 0 -18 3 -19 20 -10
11 6 20 21 20 34 0 13 7 29 15 36 11 9 15 32 15 82 0 58 -3 69 -15 64 -11 -4
-15 2 -15 20 0 13 7 27 15 30 11 4 15 21 15 56 0 40 -3 49 -15 44 -10 -4 -15
1 -15 14 0 20 -5 23 -27 13z"/>
<path d="M1903 3039 c-16 -16 -17 -49 -3 -49 13 0 23 24 18 45 -2 13 -5 14
-15 4z"/>
<path d="M1823 2943 c-7 -2 -13 -17 -13 -33 0 -16 -7 -30 -15 -34 -8 -3 -15
-17 -15 -30 0 -18 4 -24 15 -20 11 5 15 -1 15 -19 0 -14 -7 -28 -16 -31 -22
-8 -22 -8 -26 14 -3 20 -3 20 -35 0 -38 -23 -48 -66 -13 -55 19 6 20 2 20 -65
l0 -71 30 16 c38 20 40 19 40 -8 0 -15 -11 -28 -35 -41 -33 -18 -35 -22 -35
-72 0 -38 -4 -53 -16 -58 -23 -9 -24 -8 -24 13 0 14 -5 18 -20 14 -15 -4 -20
0 -20 16 0 11 9 26 20 33 11 7 20 23 20 36 l0 24 -34 -20 c-19 -11 -37 -18
-40 -15 -13 13 -5 43 14 53 18 10 20 21 20 112 0 90 -2 99 -16 88 -13 -11 -16
-10 -21 8 -7 27 -7 27 -63 -7 -28 -17 -46 -36 -48 -50 -3 -19 0 -22 17 -16 17
5 21 2 21 -14 0 -25 8 -26 34 -6 11 8 26 15 33 15 20 0 15 -38 -7 -50 -12 -6
-20 -21 -20 -35 0 -14 -9 -30 -20 -37 -15 -10 -20 -24 -20 -59 0 -42 2 -47 20
-42 16 4 20 0 20 -17 0 -18 3 -20 13 -11 23 18 27 2 27 -95 0 -83 -2 -94 -20
-104 -12 -6 -20 -21 -20 -35 0 -14 -8 -29 -20 -35 -18 -9 -20 -8 -20 14 0 15
8 30 20 36 11 6 20 20 20 31 0 16 -4 19 -20 14 -16 -5 -20 -2 -20 15 0 17 -4
20 -20 15 -16 -5 -20 -2 -20 15 0 20 -1 20 -30 5 -37 -19 -38 -19 -42 5 -3 18
-6 17 -55 -11 -41 -24 -53 -36 -53 -55 l0 -23 50 29 c60 36 60 36 60 10 0 -24
8 -25 34 -5 11 8 23 15 28 15 15 0 8 -50 -7 -56 -8 -4 -15 -17 -15 -30 0 -17
4 -22 15 -18 12 5 15 -4 15 -44 0 -47 -2 -51 -35 -71 -40 -23 -51 -68 -15 -56
15 5 20 2 20 -13 0 -10 -9 -27 -20 -37 -19 -17 -29 -61 -12 -53 57 28 62 33
62 59 0 15 7 29 16 33 22 8 22 8 26 -15 3 -20 3 -20 38 3 22 15 36 33 38 50 4
32 32 47 32 18 0 -26 5 -25 68 10 l52 30 0 76 c0 57 4 76 15 80 8 4 15 19 15
35 0 18 7 32 20 39 18 9 20 8 20 -15 0 -23 2 -24 20 -15 19 10 20 8 20 -35 0
-26 3 -45 8 -43 54 27 62 33 62 54 0 17 -4 21 -20 17 -15 -4 -20 0 -20 16 0
13 14 30 40 46 25 16 40 33 40 46 0 16 -4 19 -20 14 -19 -6 -20 -2 -20 113 0
115 -1 120 -20 115 -16 -4 -20 0 -20 17 0 19 -2 20 -15 10 -8 -7 -15 -23 -15
-36 0 -13 -9 -28 -20 -34 -18 -9 -20 -8 -20 15 0 14 9 30 20 37 11 7 20 21 20
32 0 13 -5 17 -20 13 -16 -4 -20 0 -20 19 0 13 9 29 20 36 11 7 20 21 20 32 0
13 -5 17 -20 13 -16 -4 -20 0 -20 19 0 13 9 28 20 34 11 6 20 20 20 32 0 15
-5 19 -20 15 -15 -4 -20 0 -20 14 0 19 -5 21 -27 12z m-13 -238 c0 -14 -2 -25
-4 -25 -2 0 -11 -3 -20 -6 -19 -7 -22 26 -4 44 19 19 28 14 28 -13z m80 -199
l0 -75 -54 -30 c-29 -17 -56 -31 -60 -31 -3 0 -6 32 -6 70 l0 70 53 35 c28 19
55 34 60 34 4 1 7 -32 7 -73z m-150 -166 c0 -27 -2 -50 -4 -50 -2 0 -11 -3
-20 -6 -13 -5 -16 2 -16 44 0 46 6 58 33 61 4 1 7 -21 7 -49z m-42 -122 c-2
-41 -7 -54 -20 -56 -13 -2 -18 3 -18 18 0 18 -3 20 -13 11 -16 -13 -27 -5 -27
20 0 15 53 58 73 59 4 0 7 -24 5 -52z m-125 -165 c-16 -13 -18 -12 -21 8 -3
14 4 28 15 36 16 13 18 12 21 -8 3 -14 -4 -28 -15 -36z"/>
<path d="M1828 2496 c-22 -16 -23 -46 -3 -46 17 0 28 21 23 44 -2 12 -6 12
-20 2z"/>
<path d="M1453 2879 c-7 -7 -13 -21 -13 -32 0 -14 5 -17 20 -12 16 5 20 2 20
-14 0 -14 5 -19 15 -15 8 4 15 16 15 29 0 18 -4 22 -19 18 -14 -4 -20 1 -23
17 -2 17 -5 19 -15 9z"/>
<path d="M1377 2735 c-11 -8 -17 -23 -15 -35 3 -19 5 -19 21 -7 11 7 17 22 15
34 -3 19 -5 20 -21 8z"/>
<path d="M1453 2729 c-7 -7 -13 -33 -13 -57 0 -39 2 -43 20 -37 18 6 20 2 20
-39 0 -36 3 -44 15 -40 10 4 15 21 15 54 0 43 -2 48 -19 43 -17 -4 -20 1 -23
42 -2 37 -5 44 -15 34z"/>
<path d="M1303 2693 c-7 -2 -13 -17 -13 -33 0 -16 -7 -30 -16 -34 -23 -9 -24
-8 -24 14 0 18 -3 19 -20 10 -15 -8 -20 -21 -20 -55 0 -25 3 -45 6 -45 4 0 28
12 55 27 48 26 49 27 49 75 0 26 -1 48 -2 47 -2 0 -9 -3 -15 -6z"/>
<path d="M2028 2662 c-24 -15 -28 -23 -28 -64 0 -41 2 -46 20 -41 28 7 27 -31
-1 -50 -12 -9 -19 -23 -17 -36 l3 -21 33 20 32 20 0 95 c0 52 -3 95 -7 94 -5
0 -20 -8 -35 -17z"/>
<path d="M1377 2635 c-11 -8 -17 -23 -15 -35 3 -19 5 -19 21 -7 11 7 17 22 15
34 -3 19 -5 20 -21 8z"/>
<path d="M1147 2603 c-4 -3 -7 -17 -7 -31 0 -21 2 -22 15 -12 8 7 15 21 15 31
0 19 -11 25 -23 12z"/>
<path d="M2160 2406 l0 -185 -135 -77 c-74 -42 -135 -80 -135 -85 0 -4 64 29
143 74 l142 82 3 188 c2 122 -1 187 -8 187 -6 0 -10 -65 -10 -184z"/>
<path d="M1398 2548 c-27 -16 -38 -29 -38 -45 0 -21 3 -22 20 -13 18 9 20 8
20 -15 0 -18 -10 -31 -32 -45 l-33 -20 -3 20 c-3 16 -9 19 -23 15 -17 -6 -19
-1 -19 39 0 49 -4 53 -34 31 -27 -21 -46 -19 -46 5 0 19 -1 19 -35 -1 -25 -15
-35 -28 -35 -45 0 -22 3 -23 20 -14 17 9 20 8 20 -10 0 -24 9 -25 36 -5 27 20
34 19 34 -10 0 -14 -8 -29 -20 -35 -11 -6 -20 -21 -20 -34 0 -13 -7 -29 -15
-36 -13 -11 -15 -6 -15 35 0 39 -3 46 -17 43 -14 -2 -19 -15 -21 -57 -3 -49
-2 -53 13 -41 14 11 17 10 22 -9 3 -13 11 -20 19 -17 9 4 14 -2 14 -15 0 -16
4 -19 20 -14 16 5 20 2 20 -14 0 -12 4 -21 8 -21 14 0 32 24 32 43 0 14 -5 17
-20 12 -18 -6 -20 -2 -20 42 0 43 3 50 31 66 39 22 49 22 49 -3 0 -19 1 -19
35 1 25 15 35 28 35 45 0 17 10 31 33 44 40 25 47 25 47 0 0 -13 5 -18 15 -14
8 4 15 16 15 29 0 18 -4 22 -20 18 -16 -4 -20 0 -20 17 0 18 -3 20 -14 11 -12
-10 -15 -8 -18 13 l-3 25 -37 -21z"/>
<path d="M1522 2468 c-7 -7 -12 -20 -12 -31 0 -14 5 -17 20 -12 18 6 20 2 20
-40 0 -43 1 -45 20 -35 15 8 20 21 20 56 0 41 -2 45 -20 39 -16 -5 -20 -2 -20
14 0 24 -10 27 -28 9z"/>
<path d="M1453 2429 c-16 -16 -17 -49 -3 -49 13 0 23 24 18 45 -2 13 -5 14
-15 4z"/>
<path d="M2047 2423 c-4 -3 -7 -17 -7 -31 0 -21 2 -22 15 -12 8 7 15 21 15 31
0 19 -11 25 -23 12z"/>
<path d="M2007 2353 c-4 -3 -7 -29 -7 -56 l0 -49 33 21 c34 21 53 69 23 58
-11 -5 -16 -1 -16 13 0 19 -20 27 -33 13z"/>
<path d="M1303 2343 c-7 -2 -13 -16 -13 -29 0 -22 3 -23 20 -14 11 6 20 20 20
30 0 20 -5 23 -27 13z"/>
<path d="M1147 2253 c-4 -3 -7 -17 -7 -30 0 -21 2 -22 20 -11 22 14 27 48 7
48 -8 0 -17 -3 -20 -7z"/>
<path d="M1268 2172 l-128 -74 0 -174 0 -173 123 71 c67 39 125 74 130 78 4 3
6 83 5 176 l-3 170 -127 -74z m92 -119 l0 -128 -84 -47 c-46 -27 -86 -48 -90
-48 -3 0 -6 55 -6 123 l0 122 88 51 c48 29 88 52 90 53 1 1 2 -56 2 -126z"/>
<path d="M1263 2070 l-53 -30 0 -70 c0 -39 3 -70 6 -70 4 0 31 14 60 31 l54
30 0 70 c0 38 -3 69 -7 69 -5 0 -32 -14 -60 -30z"/>
<path d="M1823 2243 c-7 -2 -13 -16 -13 -29 0 -22 3 -23 20 -14 11 6 20 20 20
30 0 20 -5 23 -27 13z"/>
<path d="M1193 2229 c-16 -16 -17 -49 -3 -49 13 0 23 24 18 45 -2 13 -5 14
-15 4z"/>
<path d="M1868 2219 c-17 -10 -26 -49 -10 -49 18 1 33 19 30 38 -2 17 -6 19
-20 11z"/>
<path d="M1453 2183 c-15 -6 -17 -53 -3 -53 6 0 13 6 16 14 8 22 1 44 -13 39z"/>
<path d="M1042 1752 l-2 -194 33 20 c17 11 81 47 140 82 59 34 106 65 103 67
-3 3 -60 -27 -128 -66 -68 -39 -127 -71 -131 -71 -3 0 -8 80 -10 178 l-2 177
-3 -193z"/>
<path d="M1793 1633 c-15 -6 -18 -113 -4 -113 23 0 41 34 41 76 0 43 -7 50
-37 37z"/>
<path d="M1676 1558 c-19 -26 -21 -94 -4 -104 18 -11 38 26 38 72 0 51 -13 63
-34 32z"/>
<path d="M1413 1413 c-7 -2 -13 -16 -13 -29 0 -22 3 -23 20 -14 11 6 20 20 20
30 0 20 -5 23 -27 13z"/>
<path d="M1296 1341 c-21 -23 -23 -111 -1 -111 21 0 35 32 35 79 0 47 -11 58
-34 32z"/>
<path d="M3675 4103 l-180 -104 -36 20 c-33 19 -38 19 -43 5 -10 -25 -7 -450
3 -477 5 -13 24 -30 42 -37 30 -13 36 -12 81 12 l49 27 36 -25 c20 -13 39 -24
43 -24 3 0 16 28 29 63 18 52 28 66 58 82 20 11 54 32 75 48 l38 27 0 239 c0
132 -3 242 -7 244 -5 3 -89 -42 -188 -100z m123 -83 c65 -96 -25 -321 -144
-360 -68 -23 -118 31 -117 126 2 190 182 351 261 234z"/>
<path d="M3722 4041 c2 -7 7 -12 11 -12 12 1 9 15 -3 20 -7 2 -11 -2 -8 -8z"/>
<path d="M3690 4000 c0 -32 1 -33 17 -17 16 16 16 18 0 34 -16 16 -17 15 -17
-17z"/>
<path d="M3757 4016 c-8 -20 14 -87 27 -83 17 6 19 35 6 68 -14 32 -25 37 -33
15z"/>
<path d="M3652 3985 c-15 -33 -15 -35 3 -35 10 0 15 10 15 30 0 37 -3 37 -18
5z"/>
<path d="M3712 3967 c-19 -21 -32 -87 -17 -87 22 0 55 36 55 59 0 45 -13 54
-38 28z"/>
<path d="M3643 3933 c-17 -3 -24 -15 -32 -51 -5 -26 -8 -48 -6 -50 2 -2 17 4
34 14 26 15 31 25 31 56 0 21 -1 37 -2 37 -2 -1 -13 -4 -25 -6z"/>
<path d="M3578 3890 c-29 -77 -32 -93 -17 -88 15 5 41 92 36 118 -1 8 -10 -5
-19 -30z"/>
<path d="M3785 3910 c-13 -20 -33 -120 -24 -120 11 0 41 97 37 117 -3 16 -5
16 -13 3z"/>
<path d="M3718 3872 c-22 -13 -28 -24 -28 -53 0 -33 3 -36 21 -32 23 6 41 45
37 79 -3 22 -4 22 -30 6z"/>
<path d="M3628 3822 c-31 -19 -33 -28 -18 -68 l11 -27 24 23 c17 16 25 34 25
57 0 37 -3 38 -42 15z"/>
<path d="M3562 3781 c-9 -5 -11 -18 -6 -37 10 -41 24 -57 39 -44 10 8 10 18 1
45 -15 43 -18 46 -34 36z"/>
<path d="M3697 3763 c-4 -3 -7 -15 -7 -27 0 -20 0 -20 15 0 8 10 15 22 15 27
0 9 -14 9 -23 0z"/>
<path d="M3647 3733 c-16 -18 -16 -21 -2 -33 20 -17 27 -9 23 25 -3 27 -3 27
-21 8z"/>
<path d="M3610 3680 c0 -5 10 -10 23 -10 18 0 19 2 7 10 -19 13 -30 13 -30 0z"/>
<path d="M3580 3405 c-25 -8 -58 -27 -72 -42 -23 -24 -27 -38 -30 -96 -1 -44
2 -71 11 -79 10 -11 12 -10 10 2 -2 8 0 28 5 44 l7 30 24 -30 c16 -20 22 -37
18 -55 -6 -30 11 -69 30 -69 7 0 20 9 30 20 9 11 23 20 32 20 23 0 47 -44 39
-75 -7 -29 -47 -60 -64 -50 -11 7 -16 -3 -25 -59 -3 -21 -17 -49 -30 -62 l-23
-23 55 -7 c106 -13 233 13 280 58 46 43 78 236 54 323 -12 47 -100 130 -160
151 -47 17 -134 16 -191 -1z"/>
<path d="M2705 3276 l-70 -42 -3 -74 c-2 -42 2 -78 8 -84 7 -7 10 13 10 67 l0
78 46 19 c25 11 52 27 60 35 9 8 20 15 25 15 5 0 9 -68 9 -159 0 -96 4 -162
10 -166 7 -4 10 57 10 174 0 211 6 204 -105 137z"/>
<path d="M3814 2863 c-14 -22 -92 -35 -170 -28 -39 4 -87 3 -106 0 -35 -7 -35
-7 -25 -40 13 -44 1 -116 -26 -157 -22 -32 -49 -45 -131 -63 -25 -5 -28 -9
-22 -36 3 -17 15 -43 26 -59 27 -39 26 -134 -4 -275 -13 -60 -22 -115 -19
-121 2 -7 0 -38 -6 -70 -23 -124 -32 -362 -21 -557 25 -475 53 -903 61 -911 4
-5 39 -11 78 -14 69 -5 71 -4 81 22 39 104 72 458 51 555 -10 46 -8 77 11 203
12 81 24 148 28 148 3 0 18 -55 33 -122 16 -77 40 -149 61 -193 32 -64 146
-251 233 -382 l36 -54 17 28 c17 28 59 67 95 88 16 10 14 22 -30 170 -52 178
-70 219 -120 274 -32 35 -34 43 -30 82 9 68 29 561 28 684 0 97 -4 121 -32
201 -17 50 -31 103 -31 117 0 14 14 68 30 119 60 184 59 325 -4 377 -26 22
-82 30 -92 14z"/>
<path d="M2620 1100 c-8 -5 -12 -11 -10 -13 20 -17 185 -107 195 -107 27 0 23
17 -6 34 -38 22 -33 29 12 16 43 -13 79 -13 79 -1 0 6 -20 13 -45 17 -35 5
-49 13 -62 35 -19 32 -21 33 -43 19 -12 -7 -12 -12 5 -29 19 -22 14 -40 -7
-24 -44 33 -106 61 -118 53z"/>
<path d="M2603 1019 c-13 -5 -23 -13 -23 -18 0 -5 -12 -12 -27 -16 -26 -6 -23
-9 45 -46 50 -28 76 -38 87 -31 13 6 5 14 -35 36 -27 15 -50 31 -50 36 0 22
23 18 79 -12 44 -24 63 -30 71 -22 8 8 -3 19 -42 41 -70 39 -79 42 -105 32z"/>
<path d="M2427 974 c-4 -4 -4 -10 -1 -15 6 -10 34 0 34 12 0 10 -24 12 -33 3z"/>
<path d="M2466 942 c-8 -13 132 -84 149 -75 11 7 0 18 -48 46 -63 36 -91 45
-101 29z"/>
<path d="M2315 909 c-9 -13 8 -25 100 -74 l73 -39 36 19 c20 11 36 23 36 27 0
11 -28 10 -51 -2 -15 -9 -34 -2 -97 35 -86 49 -88 50 -97 34z"/>
<path d="M4133 716 c-27 -24 -28 -27 -29 -125 0 -80 -4 -105 -17 -118 -12 -12
-19 -13 -29 -6 -15 13 -86 -8 -99 -29 -39 -61 81 -103 179 -63 66 28 82 51 82
116 0 35 8 79 20 109 11 28 20 56 20 63 0 22 -24 46 -62 62 -36 14 -38 14 -65
-9z"/>
<path d="M82 679 c-26 -10 -29 -50 -7 -89 25 -44 19 -86 -20 -128 -19 -21 -39
-51 -44 -66 -10 -24 -7 -31 28 -69 21 -23 40 -49 43 -57 3 -8 -3 -44 -14 -80
-22 -80 -13 -118 39 -157 l35 -27 52 29 c28 15 57 32 64 38 15 12 16 127 1
213 -11 62 -11 62 -52 72 -23 6 -61 13 -84 17 -24 4 -43 11 -43 16 0 12 25 11
95 -5 33 -8 61 -13 63 -11 11 11 -62 183 -100 238 -26 36 -13 50 14 17 66 -79
128 -280 136 -437 l5 -102 39 22 c50 28 98 106 98 161 0 29 -8 47 -31 74 -30
34 -31 37 -24 103 l7 68 -34 15 c-18 8 -47 20 -64 26 -17 6 -52 33 -78 60 -51
53 -89 72 -124 59z"/>
<path d="M1491 561 c-123 -71 -228 -135 -232 -143 -12 -18 -11 -75 1 -97 10
-19 406 -251 429 -251 8 0 117 59 243 132 156 90 233 139 239 154 14 37 -1 93
-30 113 -77 54 -381 221 -402 221 -13 0 -125 -58 -248 -129z m345 14 c12 -16
6 -56 -17 -117 -12 -30 -68 -61 -102 -56 -30 4 -23 21 13 31 34 9 47 28 56 86
l7 41 -37 0 c-47 0 -76 -15 -76 -39 0 -23 -25 -45 -44 -38 -20 8 -9 51 20 78
42 39 156 48 180 14z m-78 -107 c-3 -7 -21 -16 -42 -19 -21 -3 -43 -12 -50
-20 -15 -16 -36 -95 -28 -104 8 -8 75 -6 90 4 7 4 16 21 21 37 10 39 51 47 51
10 0 -42 -38 -75 -101 -87 -76 -15 -115 2 -112 48 5 65 27 107 63 125 41 21
114 25 108 6z"/>
<path d="M3100 411 c-35 -9 -39 -55 -9 -87 33 -35 78 -46 181 -43 51 1 125 -1
164 -5 83 -10 107 4 102 58 l-3 31 -80 -5 c-170 -10 -273 -6 -291 12 -14 14
-15 20 -4 32 11 14 9 16 -11 15 -13 -1 -35 -4 -49 -8z"/>
</g>
</svg>
